<?xml version="1.0" encoding="utf-8"?>
<!-- Generator: Adobe Illustrator 27.5.0, SVG Export Plug-In . SVG Version: 6.00 Build 0)  -->
<svg version="1.1" xmlns="http://www.w3.org/2000/svg" xmlns:xlink="http://www.w3.org/1999/xlink" x="0px" y="0px"
	 viewBox="0 0 750 500" style="enable-background:new 0 0 750 500;" xml:space="preserve">
<g id="BACKGROUND">
	<path style="fill:#FBEED1;" d="M503.665,448.168c46.782-10.121,93.001-26.953,130.696-56.449
		c37.695-29.497,66.175-72.89,70.359-120.57c6.03-68.699-39.435-133.95-98.07-170.251C548.016,64.596,478.09,51.992,409.746,42.786
		c-64.803-8.728-131.24-14.978-195.137-1.086C86.937,69.46,19.95,175.836,53.207,302.318
		c25.141,95.617,148.314,130.691,234.006,147.406C358.5,463.63,432.617,463.54,503.665,448.168z"/>
</g>
<g id="OBJECTS">
	<path style="fill:none;stroke:#BA3C17;stroke-width:0.7925;stroke-miterlimit:10;" d="M255.247,271.799"/>
	<g>
		<polygon style="fill:#21255C;" points="71.855,425.698 71.855,446.76 53.562,446.76 53.562,425.604 		"/>
		<polygon style="fill:#21255C;" points="263.624,425.698 263.624,446.76 212.131,446.76 212.131,425.604 		"/>
		<path style="fill:#21255C;" d="M226.241,374.664c-7.2,0-13.149,22.162-14.11,50.94h28.22
			C239.389,396.826,233.44,374.664,226.241,374.664z"/>
		<g>
			<path style="fill:#21255C;" d="M270.414,383.373h-42.123v100.852h42.123c6.711,0,12.151-22.577,12.151-50.426
				C282.565,405.949,277.125,383.373,270.414,383.373z"/>
			<ellipse style="fill:#495375;" cx="228.291" cy="433.799" rx="12.151" ry="50.426"/>
			<path style="fill:#C7D2D7;" d="M231.101,405.745c-0.865-1.495-1.814-2.323-2.81-2.323c-4.042,0-7.32,13.6-7.32,30.377
				s3.278,30.377,7.32,30.377c0.996,0,1.945-0.828,2.81-2.323c-2.648-4.573-4.51-15.41-4.51-28.054
				C226.591,421.154,228.453,410.317,231.101,405.745z"/>
			<path style="fill:#99A3B0;" d="M231.101,405.745c-2.648,4.572-4.51,15.41-4.51,28.054c0,12.644,1.862,23.481,4.51,28.054
				c2.648-4.573,4.51-15.41,4.51-28.054C235.611,421.154,233.749,410.317,231.101,405.745z"/>
		</g>
		<g>
			<path style="fill:#21255C;" d="M498.807,383.373h-42.124v100.852h42.124c6.71,0,12.151-22.577,12.151-50.426
				C510.958,405.949,505.517,383.373,498.807,383.373z"/>
			<path style="fill:#495375;" d="M468.835,433.799c0,27.849-5.44,50.426-12.151,50.426c-6.711,0-12.15-22.577-12.15-50.426
				c0-27.849,5.44-50.426,12.15-50.426C463.395,383.373,468.835,405.949,468.835,433.799z"/>
			<path style="fill:#C7D2D7;" d="M459.493,405.745c-0.865-1.495-1.814-2.323-2.81-2.323c-4.042,0-7.32,13.6-7.32,30.377
				s3.278,30.377,7.32,30.377c0.996,0,1.945-0.828,2.81-2.323c-2.648-4.573-4.51-15.41-4.51-28.054
				C454.983,421.154,456.846,410.317,459.493,405.745z"/>
			<path style="fill:#99A3B0;" d="M459.493,405.745c-2.648,4.572-4.51,15.41-4.51,28.054c0,12.644,1.862,23.481,4.51,28.054
				c2.648-4.573,4.51-15.41,4.51-28.054C464.003,421.154,462.142,410.317,459.493,405.745z"/>
		</g>
		<path style="fill:#21255C;" d="M67.672,374.664c-7.199,0-13.148,22.162-14.11,50.94h28.22
			C80.82,396.826,74.872,374.664,67.672,374.664z"/>
		<rect x="263.624" y="113.92" style="fill:#DF4268;" width="290.082" height="311.684"/>
		
			<rect x="264.974" y="136.872" transform="matrix(-1.836970e-16 1 -1 -1.836970e-16 678.4268 -138.9028)" style="fill:#21255C;" width="287.383" height="265.78"/>
		<g>
			<path style="fill:#21255C;" d="M109.795,383.373H67.672v100.852h42.123c6.711,0,12.151-22.577,12.151-50.426
				C121.946,405.949,116.506,383.373,109.795,383.373z"/>
			<ellipse style="fill:#495375;" cx="67.672" cy="433.799" rx="12.151" ry="50.426"/>
			<path style="fill:#C7D2D7;" d="M70.482,405.745c-0.865-1.495-1.814-2.323-2.81-2.323c-4.043,0-7.32,13.6-7.32,30.377
				s3.277,30.377,7.32,30.377c0.996,0,1.945-0.828,2.81-2.323c-2.648-4.573-4.51-15.41-4.51-28.054
				C65.972,421.154,67.834,410.317,70.482,405.745z"/>
			<path style="fill:#99A3B0;" d="M70.482,405.745c-2.648,4.572-4.51,15.41-4.51,28.054c0,12.644,1.862,23.481,4.51,28.054
				c2.648-4.573,4.51-15.41,4.51-28.054C74.992,421.154,73.13,410.317,70.482,405.745z"/>
		</g>
		<path style="fill:#95CBEE;" d="M148.376,113.92v311.684h63.755c0.961-28.778,6.91-50.94,14.11-50.94
			c7.199,0,13.148,22.162,14.11,50.94h23.273V113.92H148.376z"/>
		<path style="fill:none;stroke:#2C2493;stroke-width:1.5088;stroke-miterlimit:10;" d="M263.624,425.604"/>
		<polyline style="fill:none;stroke:#2C2493;stroke-width:1.5088;stroke-miterlimit:10;" points="246.037,113.92 148.376,113.92 
			148.376,134.646 		"/>
		<path style="fill:#DF4268;" d="M148.376,187.136H96.498c-9.095,0-16.798,6.705-18.052,15.713l-13.204,94.859l-16.553,17.086
			c-5.489,5.667-8.559,13.247-8.559,21.136v89.672h13.432c0.962-28.778,6.911-50.94,14.11-50.94c7.2,0,13.148,22.162,14.11,50.94
			h66.594V187.136z"/>
		<rect x="263.624" y="425.604" style="fill:#C7D2D7;" width="299.721" height="21.062"/>
		<rect x="240.442" y="425.604" style="fill:#99A3B0;" width="23.182" height="21.156"/>
		<polygon style="fill:#99A3B0;" points="148.376,425.604 148.376,425.698 81.782,425.604 81.782,446.759 148.376,446.759 
			212.131,446.759 212.131,425.698 		"/>
		<polygon style="fill:#99A3B0;" points="53.562,425.698 53.562,446.76 35.27,446.76 35.27,425.604 		"/>
		<path style="fill:#7DD3E9;" d="M126.401,200.502H96.499c-2.413,0-4.482,1.801-4.814,4.191l-12.947,93.016h47.664V200.502z"/>
		<path style="fill:#5FA5CC;" d="M124.579,286.368c-4.668-4.668-11-7.291-17.601-7.291H89.342l8.847-70.776
			c0.152-1.216,1.186-2.129,2.411-2.129h25.802v-5.67H96.499c-2.413,0-4.482,1.801-4.814,4.191l-12.947,93.016h47.664v-11.341
			H124.579z"/>
		<path style="fill:#A34262;" d="M121.946,297.709v114.724c0,1.231,0.998,2.228,2.228,2.228s2.228-0.997,2.228-2.228V297.709
			H121.946z"/>
		<g>
			<g>
				<path style="fill:#E36E90;" d="M47.29,376.487c-1.007,0-1.823-0.816-1.823-1.823v-37.367c0-7.455,2.858-14.512,8.045-19.868
					c0.702-0.723,1.856-0.74,2.577-0.041c0.723,0.7,0.741,1.854,0.041,2.577c-4.526,4.673-7.019,10.828-7.019,17.331v37.367
					C49.113,375.671,48.297,376.487,47.29,376.487z"/>
			</g>
			<g>
				<path style="fill:#E36E90;" d="M59.467,315.725c-0.457,0-0.915-0.171-1.269-0.514c-0.722-0.7-0.741-1.854-0.04-2.577
					l3.524-3.637c0.701-0.722,1.855-0.741,2.577-0.04c0.723,0.7,0.741,1.854,0.041,2.577l-3.524,3.637
					C60.418,315.54,59.942,315.725,59.467,315.725z"/>
			</g>
		</g>
		<g>
			<g>
				<g>
					<rect x="394.53" y="315.725" style="fill:#F4D071;" width="97.728" height="97.728"/>
					<rect x="434.686" y="315.725" style="fill:#FBEED1;" width="17.416" height="30.587"/>
				</g>
				<rect x="373.502" y="315.725" style="fill:#ECA85E;" width="21.028" height="97.728"/>
				<path style="fill:none;stroke:#ECA85E;stroke-miterlimit:10;" d="M431.459,403.9h-18.966c-1.228,0-2.224-0.996-2.224-2.224
					v-8.671c0-1.228,0.996-2.224,2.224-2.224h18.966c1.228,0,2.224,0.996,2.224,2.224v8.671
					C433.683,402.904,432.687,403.9,431.459,403.9z"/>
			</g>
			<g>
				<g>
					<rect x="371.843" y="233.291" style="fill:#F4D071;" width="82.434" height="82.434"/>
					<rect x="405.715" y="233.291" style="fill:#FBEED1;" width="14.691" height="25.801"/>
				</g>
				<rect x="345.248" y="233.291" style="fill:#ECA85E;" width="26.595" height="82.434"/>
				<path style="fill:none;stroke:#ECA85E;stroke-miterlimit:10;" d="M409.947,309.122H390.98c-1.228,0-2.224-0.996-2.224-2.224
					v-8.671c0-1.228,0.996-2.224,2.224-2.224h18.966c1.228,0,2.224,0.996,2.224,2.224v8.671
					C412.171,308.126,411.175,309.122,409.947,309.122z"/>
			</g>
			<g>
				<g>
					<rect x="275.775" y="217.998" style="fill:#F4D071;" width="69.473" height="97.727"/>
					<rect x="287.676" y="217.998" style="fill:#FBEED1;" width="17.416" height="30.587"/>
				</g>
				<polygon style="fill:#ECA85E;" points="345.248,315.725 275.775,315.725 275.775,298.519 				"/>
			</g>
			<g>
				<g>
					<rect x="275.775" y="315.725" style="fill:#F4D071;" width="97.727" height="97.728"/>
					<rect x="315.93" y="315.725" style="fill:#FBEED1;" width="17.417" height="30.587"/>
				</g>
				<polygon style="fill:#ECA85E;" points="373.502,413.453 275.775,413.453 275.775,391.271 				"/>
			</g>
		</g>
		<path style="fill:#E8916A;" d="M284.413,439.882h-20.809v-14.278h35.086l0,0C298.69,433.489,292.298,439.882,284.413,439.882z"/>
		<path style="fill:#E8916A;" d="M542.555,439.882h20.808v-14.278h-35.085l0,0C528.278,433.489,534.67,439.882,542.555,439.882z"/>
		<path style="fill:#A34262;" d="M263.624,439.882L263.624,439.882c-7.001,0-12.676-5.675-12.676-12.677v-1.601h12.676V439.882z"/>
		<g>
			<rect x="144.83" y="195.034" style="fill:#FFFFFF;" width="97.815" height="8.202"/>
			<rect x="144.83" y="203.236" style="fill:#C7D2D7;" width="97.815" height="8.202"/>
			<polygon style="fill:#99A3B0;" points="242.644,195.034 242.644,203.236 242.644,211.438 249.429,211.438 249.429,203.236 
				249.429,195.034 			"/>
		</g>
		<g>
			<rect x="144.83" y="283.28" style="fill:#FFFFFF;" width="97.815" height="8.202"/>
			<rect x="144.83" y="291.482" style="fill:#C7D2D7;" width="97.815" height="8.202"/>
			<polygon style="fill:#99A3B0;" points="242.644,283.28 242.644,291.482 242.644,299.684 249.429,299.684 249.429,291.482 
				249.429,283.28 			"/>
		</g>
		<g>
			<rect x="275.775" y="125.543" style="fill:#F4D071;" width="266.315" height="46.154"/>
			<rect x="275.775" y="131.425" style="fill:#FBEED1;" width="266.315" height="5.425"/>
			<rect x="275.775" y="142.453" style="fill:#FBEED1;" width="266.315" height="5.428"/>
			<rect x="275.775" y="153.482" style="fill:#FBEED1;" width="266.315" height="5.429"/>
			<rect x="275.775" y="164.513" style="fill:#FBEED1;" width="266.315" height="5.425"/>
		</g>
		<g>
			<path style="fill:#21255C;" d="M65.964,275.268h9.95c0.437,0,0.791-0.354,0.791-0.791c0-0.437-0.354-0.791-0.791-0.791h-9.159
				v-50.203h12.807c0.437,0,0.791-0.354,0.791-0.791s-0.354-0.791-0.791-0.791H65.964c-0.437,0-0.791,0.354-0.791,0.791v51.785
				C65.173,274.915,65.527,275.268,65.964,275.268z"/>
			<path style="fill:#21255C;" d="M61.134,268.188h9.661c2.245,0,4.065-1.82,4.065-4.065v-31.075c0-2.245-1.82-4.066-4.065-4.066
				h-9.661c-2.246,0-4.066,1.82-4.066,4.066v31.074C57.068,266.368,58.888,268.188,61.134,268.188z"/>
			<path style="fill:#7DD3E9;" d="M62.32,265.883h7.288c1.877,0,3.398-1.521,3.398-3.398v-27.801c0-1.877-1.521-3.398-3.398-3.398
				H62.32c-1.877,0-3.398,1.521-3.398,3.398v27.801C58.922,264.362,60.444,265.883,62.32,265.883z"/>
		</g>
	</g>
	<g>
		<g>
			<g>
				<g>
					<g>
						<g>
							<path style="fill:#FFFFFF;" d="M563.936,204.941l-9.787-0.776l-0.04,0.587l-0.027,0.478l-0.041,0.911
								c-0.023,0.597-0.039,1.182-0.051,1.763c-0.02,1.162-0.013,2.307,0.007,3.448c0.043,2.281,0.152,4.544,0.323,6.803
								c0.168,2.259,0.421,4.512,0.727,6.762c0.306,2.25,0.685,4.495,1.138,6.735c0.45,2.24,0.973,4.475,1.575,6.7
								c0.612,2.223,1.293,4.438,2.071,6.636c1.54,4.398,3.472,8.725,5.822,12.893c0.591,1.041,1.203,2.073,1.85,3.09l0.488,0.765
								l0.438,0.646l0.111,0.16l0.106,0.143l0.212,0.282c0.29,0.392,0.554,0.702,0.832,1.038l0.4,0.455
								c0.133,0.15,0.268,0.302,0.396,0.435c1.042,1.113,2.028,2.019,2.995,2.857c0.966,0.833,1.913,1.588,2.852,2.306
								c1.875,1.433,3.735,2.709,5.589,3.931c1.855,1.217,3.701,2.379,5.56,3.489c1.857,1.111,3.716,2.186,5.579,3.235
								c1.865,1.045,3.737,2.06,5.613,3.058c1.878,0.994,3.766,1.957,5.659,2.911l2.849,1.417l1.439,0.693l1.478,0.701l7.702-14.574
								l-2.543-1.559l-2.582-1.591c-1.719-1.067-3.425-2.155-5.124-3.244c-1.701-1.085-3.387-2.185-5.056-3.294
								c-1.672-1.104-3.323-2.223-4.944-3.356c-1.619-1.134-3.217-2.269-4.753-3.425c-1.536-1.152-3.014-2.328-4.371-3.48
								c-0.675-0.577-1.316-1.152-1.887-1.704c-0.568-0.549-1.071-1.085-1.415-1.509c-0.049-0.056-0.081-0.102-0.116-0.148
								l-0.103-0.136c-0.042-0.07-0.111-0.156-0.119-0.188l-0.018-0.031c-0.003-0.005-0.008-0.011-0.008-0.014l0.004-0.002
								c0.005-0.002,0.008-0.002,0.009-0.001l-0.321-0.559c-0.432-0.749-0.842-1.518-1.239-2.295
								c-1.582-3.117-2.889-6.442-3.97-9.895c-1.076-3.454-1.91-7.04-2.542-10.695c-0.621-3.656-1.052-7.382-1.278-11.123
								c-0.081-1.261-0.135-2.524-0.168-3.782C571.591,210.094,567.786,207.482,563.936,204.941z"/>
						</g>
					</g>
				</g>
				<g>
					<g>
						<g>
							<path style="fill:#C9DFF4;" d="M612.432,278.918c0.444,0.477,0.418,1.224-0.059,1.668c-0.477,0.444-1.224,0.418-1.668-0.059
								s-0.418-1.224,0.059-1.668C611.241,278.415,611.988,278.441,612.432,278.918z"/>
						</g>
					</g>
				</g>
				<g>
					<g>
						<g>
							<path style="fill:#C9DFF4;" d="M604.489,286.492c-0.145,0.161-0.384,0.215-0.59,0.117c-0.252-0.119-0.359-0.42-0.239-0.672
								c0.039-0.082,3.957-8.312,7.76-14.453c0.146-0.237,0.457-0.31,0.694-0.163c0.237,0.146,0.31,0.457,0.163,0.694
								c-3.773,6.092-7.667,14.272-7.706,14.354C604.549,286.415,604.521,286.456,604.489,286.492z"/>
						</g>
					</g>
				</g>
				<g>
					<g>
						<g>
							<path style="fill:#C9DFF4;" d="M616.056,278.107c-0.156,0.173-0.417,0.219-0.627,0.097l-5.377-3.126
								c-0.241-0.14-0.322-0.448-0.182-0.689c0.141-0.24,0.449-0.322,0.689-0.182l5.377,3.126c0.241,0.14,0.322,0.449,0.182,0.689
								C616.1,278.053,616.079,278.081,616.056,278.107z"/>
						</g>
					</g>
				</g>
				<g>
					<g>
						<g>
							<path style="fill:#C9DFF4;" d="M585.542,252.73c-0.043,0.047-0.095,0.087-0.156,0.116c-3.731,1.783-6.809,4.426-6.84,4.453
								c-0.211,0.182-0.529,0.159-0.711-0.052c-0.182-0.211-0.159-0.53,0.052-0.711c0.129-0.112,3.213-2.758,7.064-4.599
								c0.251-0.12,0.552-0.014,0.672,0.237C585.714,252.364,585.675,252.583,585.542,252.73z"/>
						</g>
					</g>
				</g>
				<g>
					<g>
						<g>
							<path style="fill:#C9DFF4;" d="M585.254,252.645c-0.117,0.129-0.297,0.194-0.479,0.155c-1.267-0.27-4.501-0.041-4.534-0.039
								c-0.278,0.02-0.519-0.189-0.539-0.467c-0.02-0.278,0.189-0.519,0.467-0.539c0.139-0.01,3.41-0.241,4.816,0.059
								c0.272,0.058,0.446,0.326,0.388,0.598C585.354,252.502,585.312,252.581,585.254,252.645z"/>
						</g>
					</g>
				</g>
			</g>
		</g>
		<g>
			<g>
				<g>
					<g>
						<g>
							<g>
								<g>
									<g>
										<g>
											<path style="fill:#FFFFFF;" d="M580.38,295.024c-4.128,3.853-9.96,7.02-17.128,9.062
												c-5.489,1.569-11.572,2.456-17.786,2.43c-8.171-0.027-14.552-1.454-22.134-5.147c-2.289-6.256-6.827-28.756-7.503-35.43
												c-0.135-1.328-0.243-2.658-0.332-3.988c-0.422-6.401-0.331-12.85-0.021-19.599c0.017-0.365,0.034-0.733,0.053-1.102
												c0.272-5.549,0.68-11.306,1.064-17.416c0.762-12.098,4.801-19.551,11.815-20.668c3.262-0.517,5.842-1.436,7.744-2.335
												c0.232-0.11,0.452-0.217,0.665-0.327c2.263-1.153,3.543-2.191,3.543-2.191l15.003,0.513
												c1.347,1.964,3.688,2.686,5.515,3.558c0.201,0.095,0.405,0.188,0.612,0.279c5.553,2.396,12.03,1.919,13.365,8.618
												c0.84,4.204-2.382,12.856-2.044,30.395c0.025,1.288,0.07,2.62,0.135,4.005c0.061,1.294,0.144,2.633,0.247,4.02
												c0.093,1.286,0.209,2.618,0.346,3.984c0.118,1.197,0.253,2.426,0.405,3.684c0.156,1.292,0.329,2.614,0.526,3.971
												C575.512,268.628,577.981,285.652,580.38,295.024z"/>
										</g>
									</g>
								</g>
							</g>
						</g>
					</g>
				</g>
			</g>
			<g>
				<path style="fill:#C9DFF4;" d="M552.457,212.129c-0.523,0-1.052-0.037-1.587-0.11c-7.557-1.04-13.592-8.977-13.845-9.315
					c-0.14-0.186-0.102-0.451,0.084-0.591c0.187-0.14,0.451-0.102,0.591,0.084c0.06,0.08,6.081,7.996,13.288,8.986
					c2.865,0.393,5.565-0.362,8.025-2.245c0.185-0.142,0.45-0.107,0.592,0.079c0.142,0.185,0.107,0.45-0.078,0.592
					C557.337,211.285,554.965,212.129,552.457,212.129z"/>
			</g>
			<g>
				<path style="fill:#5DABFF;" d="M530.203,202.827c7.53,10.69,8.883,25.516,8.883,25.516c8.77-0.422,26.2-0.544,26.2-0.544
					c0.787-11.489-2.707-24.972-2.707-24.972c1.573-0.015,4.378,1.595,4.378,1.595c3.263,14.263,1.917,23.498,5.813,43.544
					c3.895,20.046,7.936,48.496,7.936,48.496l-57.332,6.302c-3.142-7.313-5.177-18.74-7.005-30.935c0,0,9.991-13.933,15.373-31.148
					c5.382-17.215-5.654-36.873-5.654-36.873C527.326,203.085,528.62,202.531,530.203,202.827z"/>
			</g>
			<g>
				<path style="fill:#007DED;" d="M566.658,273.946c-8.636,0-15.712-4.32-20.372-8.265c-5.844-4.946-9.248-10.389-9.281-10.443
					c-0.123-0.198-0.062-0.458,0.136-0.581c0.199-0.122,0.458-0.062,0.581,0.136c0.033,0.053,3.379,5.399,9.127,10.259
					c5.276,4.46,13.719,9.418,23.989,7.701c0.232-0.038,0.448,0.117,0.486,0.347c0.038,0.23-0.117,0.448-0.347,0.486
					C569.499,273.832,568.057,273.946,566.658,273.946z"/>
			</g>
			<g>
				<path style="fill:#007DED;" d="M525.979,296.003c-0.193,0-0.38-0.107-0.472-0.292c-4.6-9.184-7.16-26.063-7.185-26.232
					c-0.043-0.288,0.156-0.557,0.444-0.6c0.288-0.042,0.557,0.156,0.6,0.444c0.025,0.168,2.56,16.882,7.085,25.915
					c0.131,0.261,0.025,0.578-0.235,0.708C526.14,295.985,526.059,296.003,525.979,296.003z"/>
			</g>
			<g>
				<path style="fill:#007DED;" d="M554.425,251.529c-3.651,0-6.653-1.128-8.93-3.355c-4.599-4.5-4.618-11.824-4.617-12.133
					c0.001-0.228,0.183-0.414,0.411-0.42l24.313-0.643c0.004,0,0.008,0,0.011,0c0.202,0,0.376,0.143,0.414,0.343
					c0.06,0.311,1.417,7.669-2.393,12.407c-1.944,2.417-4.881,3.694-8.73,3.795C554.743,251.527,554.583,251.529,554.425,251.529z
					 M541.734,236.453c0.076,1.592,0.609,7.459,4.354,11.12c2.206,2.156,5.161,3.198,8.793,3.105
					c3.588-0.095,6.311-1.265,8.092-3.477c3.114-3.868,2.497-9.862,2.281-11.37L541.734,236.453z"/>
			</g>
			<g>
				<g>
					<g>
						<g>
							<g>
								<g>
									<path style="fill:#6A3649;" d="M538.715,170.826c0,0-5.625,10.003-4.633,13.539c0.991,3.536,3.741,1.634,3.741,1.634
										s-3.427,6.234,0.252,8.029c2.319,1.132,4.658-3.66,4.658-3.66S545.893,173.891,538.715,170.826z"/>
								</g>
							</g>
						</g>
					</g>
					<g>
						<g>
							<g>
								<g>
									<g>
										<g>
											<g>
												<g>
													<path style="fill:#6A3649;" d="M563.52,178.16c0,0,4.341,8.366,2.529,11.559c-1.813,3.193-4.024,0.686-4.024,0.686
														s1.827,6.875-2.176,7.733c-2.522,0.541-3.641-4.674-3.641-4.674S555.816,179.409,563.52,178.16z"/>
												</g>
											</g>
										</g>
									</g>
								</g>
							</g>
						</g>
					</g>
					<g>
						<g>
							<g>
								<g>
									<g>
										<g>
											<g>
												<g>
													<g>
														<g>
															<path style="fill:#F2C9AD;" d="M556.823,197.104l-0.501,4.106c-0.528,0.329-1.055,0.608-1.578,0.841
																c-7.653,3.412-14.698-2.828-14.698-2.828l1.738-14.238l13.246,10.673L556.823,197.104z"/>
														</g>
													</g>
												</g>
											</g>
										</g>
									</g>
								</g>
							</g>
						</g>
					</g>
					<g>
						<g>
							<g>
								<g>
									<g>
										<g>
											<g>
												<g>
													<g>
														<g>
															<path style="fill:#6A3649;" d="M556.823,197.104l-0.501,4.106c-0.528,0.329-1.055,0.608-1.578,0.841
																c-5.778-3.145-9.419-10.054-9.419-10.054l9.705,3.662L556.823,197.104z"/>
														</g>
													</g>
												</g>
											</g>
										</g>
									</g>
								</g>
							</g>
						</g>
					</g>
					<g>
						<g>
							<g>
								<g>
									<g>
										<g>
											<g>
												<g>
													<g>
														<g>
															<g>
																<path style="fill:#6A3649;" d="M561.764,163.775c0,0,9.808,2.145,4.959,12.088
																	C566.723,175.863,561.204,166.46,561.764,163.775z"/>
															</g>
														</g>
													</g>
												</g>
											</g>
										</g>
									</g>
								</g>
							</g>
						</g>
						<g>
							<g>
								<g>
									<g>
										<g>
											<g>
												<g>
													<g>
														<g>
															<g>
																<path style="fill:#EF9F6A;" d="M564.176,179.532c0,0,2.668-2.471,3.65,0.446c0.982,2.916-0.713,8.37-4.15,7.024
																	L564.176,179.532z"/>
															</g>
														</g>
													</g>
												</g>
											</g>
										</g>
									</g>
								</g>
							</g>
						</g>
						<g>
							<g>
								<g>
									<g>
										<path style="fill:#F2C9AD;" d="M565.484,189.499c0,0-1.024,8.491-9.853,7.394c-8.774-1.088-13.913-8.71-14.185-9.067
											c-0.005-0.006-0.008-0.009-0.008-0.009l0.122-1.796l0.632-9.322l0.337-4.982c0,0-0.033-9.05,8.636-9.641
											c6.334-0.433,12.012,1.303,14.547,4.89c0.933,1.323,1.439,2.897,1.393,4.708l-0.811,8.925l-0.199,2.187L565.484,189.499z"
											/>
									</g>
								</g>
							</g>
						</g>
						<g>
							<g>
								<g>
									<g>
										<g>
											<g>
												<g>
													<g>
														<g>
															<g>
																<g>
																	<path style="fill:#6A3649;" d="M555.455,177.428c-0.091,0.795-0.526,1.398-0.971,1.346
																		c-0.445-0.051-0.731-0.737-0.64-1.531c0.091-0.795,0.526-1.398,0.971-1.346S555.546,176.633,555.455,177.428z"/>
																</g>
															</g>
														</g>
													</g>
												</g>
											</g>
										</g>
									</g>
								</g>
							</g>
						</g>
						<g>
							<g>
								<g>
									<g>
										<g>
											<g>
												<g>
													<g>
														<g>
															<g>
																<g>
																	<path style="fill:#6A3649;" d="M563.441,178.346c-0.091,0.795-0.526,1.398-0.971,1.346
																		c-0.445-0.051-0.731-0.737-0.64-1.532c0.091-0.795,0.526-1.397,0.97-1.346
																		C563.246,176.866,563.532,177.551,563.441,178.346z"/>
																</g>
															</g>
														</g>
													</g>
												</g>
											</g>
										</g>
									</g>
								</g>
							</g>
						</g>
						<g>
							<g>
								<g>
									<g>
										<g>
											<g>
												<g>
													<g>
														<g>
															<g>
																<g>
																	<path style="fill:#EF9F6A;" d="M554.641,180.284c-0.075,0.618-1.41,0.964-2.98,0.772
																		c-1.57-0.192-2.782-0.848-2.707-1.466c0.076-0.618,1.41-0.964,2.98-0.772
																		C553.505,179.009,554.717,179.665,554.641,180.284z"/>
																</g>
															</g>
														</g>
													</g>
												</g>
											</g>
										</g>
									</g>
								</g>
							</g>
						</g>
						<g>
							<g>
								<g>
									<g>
										<g>
											<g>
												<g>
													<g>
														<g>
															<g>
																<g>
																	<path style="fill:#EF9F6A;" d="M566.094,182.784c-0.222-0.005-0.454-0.022-0.689-0.051
																		c-1.569-0.192-2.781-0.849-2.706-1.467c0.075-0.618,1.41-0.964,2.979-0.773c0.212,0.026,0.418,0.061,0.615,0.103
																		L566.094,182.784z"/>
																</g>
															</g>
														</g>
													</g>
												</g>
											</g>
										</g>
									</g>
								</g>
							</g>
						</g>
						<g>
							<g>
								<g>
									<g>
										<g>
											<g>
												<g>
													<g>
														<g>
															<g>
																<g>
																	<path style="fill:#6A3649;" d="M551.959,173.481c0.797,0.467,2.554,1.061,4.604-0.977
																		c0.25-0.249,0.293-0.64,0.106-0.939l0,0c-0.235-0.376-0.743-0.474-1.095-0.206
																		c-0.619,0.472-1.679,1.006-3.029,0.628c-0.422-0.118-0.852,0.165-0.934,0.595l-0.019,0.1
																		C551.532,173,551.68,173.318,551.959,173.481z"/>
																</g>
															</g>
														</g>
													</g>
												</g>
											</g>
										</g>
									</g>
								</g>
							</g>
							<g>
								<g>
									<g>
										<g>
											<path style="fill:#6A3649;" d="M566.08,174.772c-0.861,0.335-2.69,0.644-4.391-1.692
												c-0.208-0.285-0.189-0.678,0.043-0.944l0,0c0.291-0.334,0.808-0.351,1.114-0.03c0.537,0.564,1.499,1.259,2.892,1.098
												c0.435-0.05,0.815,0.298,0.828,0.735l0.003,0.102C566.577,174.364,566.381,174.655,566.08,174.772z"/>
										</g>
									</g>
								</g>
							</g>
							<g>
								<g>
									<g>
										<g>
											<g>
												<g>
													<g>
														<g>
															<g>
																<g>
																	<path style="fill:#6A3649;" d="M559.394,186.206c1.022,0.125,2.14-0.032,3.308-0.668
																		c0.171-0.093,0.234-0.307,0.141-0.477c-0.093-0.171-0.307-0.234-0.477-0.141c-4.179,2.274-7.717-2.471-7.752-2.52
																		c-0.115-0.157-0.335-0.191-0.492-0.076c-0.157,0.115-0.191,0.335-0.076,0.492
																		C554.076,182.856,556.292,185.827,559.394,186.206z"/>
																</g>
															</g>
														</g>
													</g>
												</g>
											</g>
										</g>
									</g>
								</g>
							</g>
						</g>
						<g>
							<g>
								<g>
									<g>
										<g>
											<g>
												<g>
													<g>
														<g>
															<g>
																<path style="fill:#6A3649;" d="M544.631,184.719c-0.052,0.089-1.486,2.545-3.185,3.107
																	c-0.005-0.006-0.008-0.01-0.008-0.01l0.122-1.796C541.56,186.02,542.983,185.953,544.631,184.719z"/>
															</g>
														</g>
													</g>
												</g>
											</g>
										</g>
									</g>
								</g>
							</g>
						</g>
						<g>
							<g>
								<g>
									<g>
										<g>
											<g>
												<g>
													<g>
														<g>
															<g>
																<path style="fill:#F2C9AD;" d="M543.795,178.633c0,0-2.838-4.974-5.762-1.694c-2.41,2.702,0.526,10.87,4.903,8.729
																	L543.795,178.633z"/>
															</g>
														</g>
													</g>
												</g>
											</g>
										</g>
									</g>
								</g>
							</g>
						</g>
						<g>
							<g>
								<g>
									<g>
										<g>
											<g>
												<g>
													<g>
														<g>
															<g>
																<path style="fill:#6A3649;" d="M542.64,184.237c0.013,0.001,0.026,0.003,0.039,0.003
																	c0.194,0.003,0.354-0.153,0.356-0.347c0.049-3.93-3.05-5.671-3.182-5.743c-0.171-0.094-0.384-0.031-0.478,0.14
																	c-0.093,0.17-0.031,0.384,0.139,0.477l0,0c0.117,0.064,2.861,1.62,2.817,5.117
																	C542.329,184.065,542.464,184.216,542.64,184.237z"/>
															</g>
														</g>
													</g>
												</g>
											</g>
										</g>
									</g>
								</g>
							</g>
						</g>
						<g>
							<g>
								<g>
									<g>
										<g>
											<g>
												<g>
													<g>
														<g>
															<g>
																<path style="fill:#6A3649;" d="M539.639,181.722c0.077,0.009,0.158-0.007,0.23-0.051l0,0
																	c0.334-0.209,1.328-0.702,1.912-0.474c0.181,0.071,0.385-0.019,0.456-0.2c0.071-0.181-0.019-0.385-0.2-0.456
																	c-1.017-0.397-2.389,0.437-2.542,0.534c-0.164,0.103-0.214,0.321-0.11,0.485
																	C539.443,181.653,539.538,181.71,539.639,181.722z"/>
															</g>
														</g>
													</g>
												</g>
											</g>
										</g>
									</g>
								</g>
							</g>
						</g>
						<g>
							<g>
								<g>
									<g>
										<g>
											<g>
												<g>
													<g>
														<g>
															<g>
																<path style="fill:#6A3649;" d="M558.523,181.642c2.07,0.253,2.945-1.108,2.981-1.166
																	c0.056-0.09,0.069-0.2,0.034-0.301c-1.062-3.098-2.133-6.279-2.144-6.311c-0.062-0.184-0.262-0.283-0.446-0.221
																	c-0.184,0.062-0.283,0.262-0.221,0.446c0.01,0.031,1.042,3.094,2.084,6.137c-0.235,0.27-0.917,0.874-2.203,0.717
																	c-0.193-0.023-0.368,0.114-0.392,0.307C558.193,181.443,558.33,181.618,558.523,181.642z"/>
															</g>
														</g>
													</g>
												</g>
											</g>
										</g>
									</g>
								</g>
							</g>
						</g>
					</g>
					<g>
						<g>
							<g>
								<path style="fill:#6A3649;" d="M565.71,166.964c-0.098,0.29-0.258,0.532-0.48,0.714c-1.935,1.591-5.911,0.456-9.529-1.163
									c-3.617-1.618-6.589,0.785-6.589,0.785c0.606,3.727-2.968,3.586-2.548,6.404c0.121,0.805,0.147,1.671,0.123,2.499
									c-0.006,0.275-0.02,0.545-0.038,0.807c-0.113,1.711-0.393,3.077-0.393,3.077l-2.169-0.56
									c-0.17-0.714-0.525-1.474-1.188-2.159c-0.202-0.208-0.431-0.408-0.693-0.597c-0.494-0.361-1.102-0.681-1.848-0.94
									c-2.634,0.16-2.129-5.213-0.287-9.291c0,0,2.424-3.874,11.094-4.465C557.497,161.643,563.176,163.378,565.71,166.964z"/>
							</g>
						</g>
					</g>
					<g>
						<g>
							<g>
								<g>
									<g>
										<g>
											<g>
												<path style="fill:#5DABFF;" d="M538.809,170.063l4.697-2.767l0.607-0.357l1.329-0.783
													c8.95-2.807,19.537-0.941,19.537-0.941s-1.164-8.039-11.144-9.592c-3.615-0.563-6.659-0.064-9.047,1.071
													c-0.412,0.195-0.804,0.409-1.176,0.642c-2.211,1.373-3.716,3.339-4.423,5.438
													C537.673,167.273,538.809,170.063,538.809,170.063z"/>
											</g>
										</g>
									</g>
								</g>
							</g>
						</g>
					</g>
					<g>
						<g>
							<g>
								<g>
									<g>
										<g>
											<g>
												<g>
													<g>
														<g>
															<g>
																<path style="fill:#007DED;" d="M543.505,167.296l0.607-0.357c-1.442-1.954-1.71-4.344-0.795-7.125
																	c0.406-1.239,0.985-2.329,1.47-3.12c-0.412,0.195-0.804,0.409-1.176,0.642c-0.344,0.658-0.687,1.423-0.962,2.259
																	C541.678,162.542,541.978,165.172,543.505,167.296z"/>
															</g>
														</g>
													</g>
												</g>
											</g>
										</g>
									</g>
								</g>
							</g>
						</g>
					</g>
					<g>
						<g>
							<g>
								<g>
									<g>
										<g>
											<g>
												<g>
													<g>
														<g>
															<path style="fill:#007DED;" d="M558.191,158.083c0,0-3.516-1.719-8.729,0.016l0.477,2.852c0,0,4.903-1.056,8.254-0.6
																L558.191,158.083z"/>
														</g>
													</g>
												</g>
											</g>
										</g>
									</g>
								</g>
							</g>
						</g>
					</g>
					<g>
						<g>
							<g>
								<g>
									<g>
										<g>
											<g>
												<g>
													<g>
														<g>
															<path style="fill:#007DED;" d="M568.049,170.283c0,0,12.37-5.152,7.186-10.701s-19.817-3.125-29.795,6.572
																C545.441,166.155,567.38,162.074,568.049,170.283z"/>
														</g>
													</g>
												</g>
											</g>
										</g>
									</g>
								</g>
							</g>
						</g>
					</g>
				</g>
			</g>
		</g>
		<g>
			<g>
				<g>
					<path style="fill:#C9DFF4;" d="M575.299,213.313c-0.015,0.139-1.104,10.954-1.556,20.127c-0.061-0.044-0.12-0.087-0.182-0.131
						c-0.264-0.192-0.528-0.384-0.792-0.579c0.471-9.06,1.512-19.382,1.526-19.519c0.027-0.279,0.274-0.479,0.551-0.452
						C575.124,212.789,575.327,213.036,575.299,213.313z"/>
				</g>
			</g>
		</g>
		<g>
			<g>
				<g>
					<g>
						<g>
							<g>
								<g>
									<g>
										<g>
											<g>
												<polygon style="fill:#F2C9AD;" points="501.803,455.625 500.939,467.781 513.42,468.017 514.107,456.612 												
													"/>
											</g>
										</g>
									</g>
								</g>
							</g>
						</g>
					</g>
					<g>
						<g>
							<g>
								<path style="fill:#5DABFF;" d="M551.961,316.333l-0.747,2.014l-24.325,65.498c0,27.061-12.233,75.878-12.233,75.878
									l-14.659-0.697l4.021-76.332l0.055-1.047c0.023-0.095,0.046-0.19,0.072-0.287c3.76-15.035,11.581-52.592,16.905-70.706
									c0.15-0.511,0.293-1.003,0.435-1.478c0.46-1.564,0.863-2.932,1.197-4.068c0.281-0.952,0.513-1.742,0.692-2.345
									c0-0.002,0.002-0.004,0.002-0.006c0.266-0.901,0.41-1.389,0.41-1.389l4.112,2.185l1.182,0.627l5.398,2.867L551.961,316.333z
									"/>
							</g>
						</g>
					</g>
					<g>
						<g>
							<g>
								<g>
									<g>
										<g>
											<g>
												<path style="fill:#007DED;" d="M511.795,381.767c-1.95,0.778-3.94,1.038-5.723,1.038c-0.723,0-1.414-0.044-2.054-0.11
													l0.055-1.047c0.025-0.095,0.047-0.189,0.072-0.286c0.61,0.064,1.269,0.106,1.958,0.106c1.64,0,3.451-0.233,5.204-0.931
													c0.339-0.136,0.725,0.03,0.859,0.369C512.302,381.246,512.136,381.633,511.795,381.767z"/>
											</g>
										</g>
									</g>
								</g>
							</g>
						</g>
					</g>
					<g>
						<g>
							<g>
								<g>
									<g>
										<g>
											<g>
												<g>
													<g>
														<g>
															<path style="fill:#3E4870;" d="M516.246,481.861c0,0.097-0.002,0.191-0.005,0.283
																c-0.009,0.431-0.028,0.817-0.046,1.149c-0.044,0.73-0.097,1.179-0.097,1.179h-24.228c0,0-0.12-0.937-0.028-2.328
																c0.159-2.476,0.981-6.386,4.327-8.969c4.58-3.542,2.812-2.803,3.751-4.417c0.106-0.18,0.93-2.922,1.018-3.111
																c0.788-1.676,1.513-2.468,5.854-2.468c5.757,0,6.263,2.793,6.878,4.265c0.253,0.61,0.601,1.893,0.958,3.42
																c0.145,0.612,0.29,1.266,0.433,1.932c0.355,1.669,0.686,3.413,0.912,4.803
																C516.214,479.088,516.265,480.622,516.246,481.861z"/>
														</g>
													</g>
												</g>
											</g>
										</g>
									</g>
								</g>
							</g>
							<g>
								<g>
									<g>
										<g>
											<g>
												<g>
													<g>
														<g>
															<g>
																<path style="fill:#007DED;" d="M516.246,481.861c0,0.097-0.002,0.191-0.005,0.283
																	c-0.009,0.431-0.028,0.817-0.046,1.149c-1.181-0.829-2.024-1.923-2.517-3.263c-1.499-4.083,0.806-8.983,0.903-9.19
																	l0.048,0.023c0.145,0.612,0.29,1.266,0.433,1.932c-0.546,1.667-1.174,4.47-0.301,6.841
																	C515.079,480.5,515.576,481.243,516.246,481.861z"/>
															</g>
														</g>
													</g>
												</g>
											</g>
										</g>
									</g>
								</g>
							</g>
							<g>
								<g>
									<g>
										<g>
											<g>
												<g>
													<g>
														<g>
															<path style="fill:#007DED;" d="M516.242,482.144c-0.032,1.379-0.143,2.328-0.143,2.328h-24.228
																c0,0-0.12-0.937-0.028-2.328H516.242z"/>
														</g>
													</g>
												</g>
											</g>
										</g>
									</g>
								</g>
							</g>
						</g>
						<g>
							<g>
								<g>
									<g>
										<g>
											<g>
												<g>
													<g>
														<path style="fill:#007DED;" d="M507.592,470.731c-0.057,0-0.115-0.007-0.173-0.022
															c-3.081-0.798-5.592-0.123-5.617-0.116c-0.368,0.102-0.748-0.114-0.85-0.482c-0.102-0.368,0.114-0.748,0.482-0.85
															c0.117-0.032,2.896-0.78,6.331,0.11c0.37,0.095,0.591,0.473,0.496,0.842
															C508.18,470.524,507.9,470.731,507.592,470.731z"/>
													</g>
												</g>
											</g>
										</g>
									</g>
								</g>
							</g>
						</g>
						<g>
							<g>
								<g>
									<g>
										<g>
											<g>
												<g>
													<g>
														<path style="fill:#007DED;" d="M507.99,467.939c-0.057,0-0.116-0.007-0.173-0.022
															c-3.082-0.798-5.592-0.123-5.617-0.116c-0.368,0.102-0.748-0.114-0.85-0.482c-0.102-0.368,0.114-0.748,0.482-0.85
															c0.116-0.032,2.896-0.78,6.331,0.11c0.37,0.096,0.591,0.473,0.496,0.842
															C508.578,467.733,508.298,467.939,507.99,467.939z"/>
													</g>
												</g>
											</g>
										</g>
									</g>
								</g>
							</g>
						</g>
						<g>
							<g>
								<g>
									<g>
										<g>
											<g>
												<g>
													<g>
														<path style="fill:#007DED;" d="M506.556,472.919c-0.057,0-0.116-0.007-0.174-0.022
															c-3.062-0.793-5.593-0.122-5.618-0.115c-0.368,0.101-0.747-0.116-0.848-0.483c-0.101-0.367,0.114-0.747,0.482-0.849
															c0.116-0.032,2.896-0.78,6.331,0.11c0.369,0.096,0.591,0.473,0.496,0.842
															C507.144,472.713,506.864,472.919,506.556,472.919z"/>
													</g>
												</g>
											</g>
										</g>
									</g>
								</g>
							</g>
						</g>
						<g>
							<g>
								<g>
									<g>
										<g>
											<g>
												<g>
													<g>
														<path style="fill:#007DED;" d="M505.339,475.408c-0.057,0-0.116-0.007-0.174-0.022
															c-3.061-0.793-5.593-0.122-5.618-0.116c-0.368,0.101-0.748-0.116-0.849-0.483c-0.101-0.368,0.114-0.747,0.481-0.849
															c0.117-0.032,2.896-0.78,6.332,0.11c0.369,0.096,0.591,0.473,0.496,0.842
															C505.927,475.201,505.646,475.408,505.339,475.408z"/>
													</g>
												</g>
											</g>
										</g>
									</g>
								</g>
							</g>
						</g>
					</g>
					<g>
						<g>
							<g>
								<g>
									<g>
										<g>
											<path style="fill:#007DED;" d="M513.123,459.458c-0.043,0-0.087-0.004-0.132-0.013c-0.359-0.072-0.591-0.422-0.519-0.78
												c0.064-0.319,6.429-31.943,8.174-41.668c1.738-9.684,2.469-35.098,2.476-35.354c0.003-0.087,0.022-0.172,0.058-0.252
												c4.132-9.242,23.036-60.956,23.227-61.477c0.125-0.344,0.506-0.521,0.85-0.395c0.344,0.126,0.521,0.506,0.395,0.85
												c-0.19,0.52-18.951,51.842-23.208,61.442c-0.059,2.003-0.802,26.003-2.492,35.419c-1.748,9.739-8.116,41.377-8.18,41.695
												C513.709,459.241,513.432,459.458,513.123,459.458z"/>
										</g>
									</g>
								</g>
							</g>
						</g>
					</g>
				</g>
				<g>
					<g>
						<g>
							<g>
								<g>
									<g>
										<g>
											<polygon style="fill:#F2C9AD;" points="553.305,455.625 553.525,467.802 564.922,468.017 564.986,456.562 											"/>
										</g>
									</g>
								</g>
							</g>
						</g>
					</g>
				</g>
				<g>
					<g>
						<g>
							<g>
								<g>
									<g>
										<g>
											<g>
												<g>
													<path style="fill:#3E4870;" d="M591.63,484.862l-40.671-0.435c-0.297-0.553-0.453-1.334-0.511-2.264
														c-0.217-3.443,0.938-8.922,1.512-12.378c0.07-0.403,0.129-0.781,0.177-1.122c0.081-0.578,0.133-1.059,0.136-1.412
														c0.03-2.825,2.526-2.314,2.526-2.314c4.072,4.08,8.797-1.923,11.497,0.092c0,0,1.163,0.853,4.361,3.792
														c3.196,2.94,8.668,4.916,13.322,6.922c6.008,2.587,7.693,5.126,8.008,6.865
														C592.238,483.985,591.63,484.862,591.63,484.862z"/>
												</g>
											</g>
										</g>
									</g>
								</g>
							</g>
						</g>
					</g>
					<g>
						<g>
							<g>
								<g>
									<g>
										<g>
											<g>
												<g>
													<path style="fill:#007DED;" d="M591.63,484.862l-40.671-0.435c-0.297-0.553-0.453-1.334-0.511-2.264l41.54,0.444
														C592.238,483.985,591.63,484.862,591.63,484.862z"/>
												</g>
											</g>
										</g>
									</g>
								</g>
							</g>
						</g>
					</g>
					<g>
						<g>
							<g>
								<g>
									<g>
										<g>
											<g>
												<g>
													<g>
														<path style="fill:#007DED;" d="M555.109,484.471l-1.208-0.013c1.22-1.365,2.371-3.466,2.256-6.489
															c-0.153-4.021-2.535-6.755-4.195-8.185c0.07-0.403,0.129-0.781,0.177-1.122c1.791,1.399,4.802,4.453,4.988,9.268
															C557.235,480.819,556.265,482.961,555.109,484.471z"/>
													</g>
												</g>
											</g>
										</g>
									</g>
								</g>
							</g>
						</g>
					</g>
					<g>
						<g>
							<g>
								<g>
									<g>
										<g>
											<g>
												<g>
													<path style="fill:#007DED;" d="M569.943,471.212c-0.301-0.003-0.572-0.21-0.645-0.516
														c-0.086-0.36,0.137-0.721,0.498-0.807l2.547-0.604c0.36-0.086,0.721,0.137,0.807,0.497
														c0.085,0.36-0.138,0.722-0.498,0.807l-2.547,0.604C570.051,471.207,569.996,471.213,569.943,471.212z"/>
												</g>
											</g>
										</g>
									</g>
								</g>
							</g>
						</g>
					</g>
					<g>
						<g>
							<g>
								<path style="fill:#007DED;" d="M567.157,468.989c-0.301-0.003-0.572-0.21-0.644-0.516c-0.086-0.36,0.137-0.721,0.498-0.807
									l2.547-0.604c0.36-0.086,0.721,0.137,0.807,0.498c0.085,0.36-0.138,0.721-0.498,0.807l-2.547,0.604
									C567.265,468.984,567.211,468.99,567.157,468.989z"/>
							</g>
						</g>
					</g>
					<g>
						<g>
							<g>
								<g>
									<g>
										<g>
											<g>
												<g>
													<path style="fill:#007DED;" d="M572.467,472.716c-0.301-0.003-0.572-0.21-0.644-0.516
														c-0.086-0.36,0.137-0.721,0.498-0.807l2.547-0.603c0.36-0.086,0.721,0.137,0.807,0.497
														c0.085,0.36-0.137,0.721-0.498,0.807l-2.547,0.603C572.575,472.711,572.521,472.717,572.467,472.716z"/>
												</g>
											</g>
										</g>
									</g>
								</g>
							</g>
						</g>
					</g>
					<g>
						<g>
							<g>
								<g>
									<g>
										<g>
											<g>
												<g>
													<path style="fill:#007DED;" d="M574.993,474.163c-0.301-0.003-0.572-0.21-0.644-0.516
														c-0.085-0.36,0.138-0.721,0.498-0.807l2.547-0.603c0.36-0.086,0.721,0.137,0.807,0.498
														c0.085,0.36-0.137,0.721-0.498,0.806l-2.547,0.604C575.101,474.158,575.046,474.164,574.993,474.163z"/>
												</g>
											</g>
										</g>
									</g>
								</g>
							</g>
						</g>
					</g>
					<g>
						<g>
							<g>
								<g>
									<g>
										<g>
											<g>
												<g>
													<path style="fill:#007DED;" d="M577.749,475.506c-0.301-0.003-0.572-0.21-0.645-0.516
														c-0.085-0.36,0.138-0.721,0.498-0.807l2.547-0.603c0.36-0.085,0.721,0.137,0.807,0.497
														c0.085,0.36-0.137,0.721-0.498,0.807l-2.547,0.604C577.857,475.5,577.803,475.506,577.749,475.506z"/>
												</g>
											</g>
										</g>
									</g>
								</g>
							</g>
						</g>
					</g>
					<g>
						<g>
							<g>
								<g>
									<g>
										<g>
											<g>
												<g>
													<path style="fill:#007DED;" d="M580.741,476.657c-0.301-0.003-0.572-0.21-0.645-0.516
														c-0.085-0.36,0.138-0.721,0.498-0.807l2.547-0.604c0.36-0.086,0.721,0.137,0.807,0.498
														c0.086,0.36-0.137,0.721-0.498,0.807l-2.547,0.603C580.849,476.652,580.795,476.658,580.741,476.657z"/>
												</g>
											</g>
										</g>
									</g>
								</g>
							</g>
						</g>
					</g>
				</g>
				<g>
					<g>
						<g>
							<path style="fill:#5DABFF;" d="M582.428,307.554c-0.004,0.413-0.008,0.82-0.011,1.231c-0.006,0.966-0.017,1.929-0.026,2.889
								c-0.006,0.498-0.011,0.994-0.019,1.49c0,0.07,0,0.136-0.002,0.203c-0.002,0.458-0.008,0.914-0.013,1.369
								c-0.358,29.784-1.405,57.002-3.548,76.534v0.009l-0.238,1.339l-11.994,67.545l-15.437-1.304c0,0,0.56-53.483,3.959-65.688
								l-0.063-74.865l-0.006-10.776l20.804,2.189l1.297-0.426l0.765-0.25l1.27-0.417L582.428,307.554z"/>
						</g>
					</g>
				</g>
				<g>
					<g>
						<g>
							<g>
								<g>
									<g>
										<g>
											<path style="fill:#007DED;" d="M578.808,391.269v0.009l-0.238,1.339c-0.241,0.011-0.479,0.017-0.716,0.017
												c-5.025,0-9.245-2.463-9.468-2.595c-0.314-0.188-0.419-0.592-0.231-0.907c0.187-0.316,0.594-0.418,0.909-0.233
												C569.138,388.944,573.734,391.612,578.808,391.269z"/>
										</g>
									</g>
								</g>
							</g>
						</g>
					</g>
				</g>
				<g>
					<g>
						<g>
							<g>
								<g>
									<g>
										<g>
											<path style="fill:#007DED;" d="M554.177,454.668c0.026,0.003,0.053,0.005,0.08,0.004c0.356-0.003,0.643-0.294,0.64-0.65
												c-0.359-45.094,5.291-62.962,5.348-63.138c0.022-0.068,0.033-0.139,0.032-0.21l-1.128-71.522
												c-0.006-0.357-0.3-0.642-0.655-0.635c-0.356,0.006-0.641,0.299-0.635,0.655l1.126,71.42
												c-0.473,1.558-5.725,19.906-5.379,63.441C553.609,454.361,553.858,454.631,554.177,454.668z"/>
										</g>
									</g>
								</g>
							</g>
						</g>
					</g>
				</g>
				<g>
					<g>
						<g>
							<path style="fill:#5DABFF;" d="M581.201,311.119c-4.663,3.114-15.284,5.647-26.037,6.848c-1.317,0.148-2.639,0.274-3.95,0.38
								c-12.476,1.013-24.165,0.091-25.811-3.945c-0.205-0.502-0.393-1.028-0.564-1.579c-0.004-0.015-0.006-0.032-0.013-0.046
								c-0.124-0.403-0.238-0.817-0.342-1.241c-0.19-0.76-0.348-1.547-0.486-2.352c-0.08-0.471-0.152-0.948-0.213-1.425
								c-0.099-0.745-0.177-1.497-0.243-2.248c-0.006-0.072-0.013-0.141-0.017-0.213c-0.07-0.853-0.118-1.702-0.152-2.533
								c-0.099-2.483-0.055-4.817,0.025-6.652c0.103-2.328,0.264-3.85,0.264-3.85l52.589-11.036c0,0,1.63,4.716,3.209,10.416
								c0.513,1.856,1.02,3.817,1.465,5.753c0.625,2.727,1.125,5.408,1.336,7.68c0.044,0.483,0.076,0.952,0.093,1.397
								C582.444,308.784,582.134,310.496,581.201,311.119z"/>
						</g>
					</g>
				</g>
				<g>
					<g>
						<g>
							<g>
								<g>
									<g>
										<g>
											<g>
												<path style="fill:#007DED;" d="M582.356,306.47c-0.057-0.013-0.106-0.028-0.144-0.042
													c-0.958-0.326-1.872-0.77-2.745-1.333c-0.233-0.15-0.458-0.305-0.68-0.468c-0.841-0.613-1.598-1.312-2.279-2.06
													c-4.256-4.669-5.528-11.261-5.589-11.594c-0.066-0.35,0.165-0.685,0.515-0.751c0.354-0.066,0.689,0.167,0.754,0.515
													c0.015,0.08,1.314,6.821,5.562,11.259c0.625,0.657,1.318,1.263,2.077,1.791c0.112,0.076,0.223,0.151,0.337,0.225
													c0.672,0.43,1.372,0.784,2.1,1.06C582.308,305.557,582.339,306.025,582.356,306.47z"/>
											</g>
										</g>
									</g>
								</g>
							</g>
						</g>
					</g>
				</g>
				<g>
					<g>
						<g>
							<g>
								<g>
									<g>
										<g>
											<path style="fill:#007DED;" d="M532.093,297.337c-0.063,0.231-0.979,3.552-3.014,6.844
												c-1.24,2.009-2.898,4.006-5.03,5.284c-0.246,0.15-0.498,0.288-0.757,0.415c-0.725,0.36-1.473,0.617-2.242,0.776
												c0.15-0.511,0.294-1.003,0.434-1.478c0.417-0.127,0.826-0.288,1.225-0.487c0.388-0.191,0.759-0.411,1.117-0.653
												c1.675-1.138,3.023-2.796,4.072-4.483c1.988-3.201,2.898-6.509,2.914-6.564c0.097-0.35,0.46-0.562,0.812-0.466
												C531.978,296.621,532.188,296.985,532.093,297.337z"/>
										</g>
									</g>
								</g>
							</g>
						</g>
					</g>
				</g>
				<g>
					<g>
						<g>
							<g>
								<g>
									<g>
										<g>
											<g>
												<path style="fill:#007DED;" d="M560.395,315.169c0.014,0.284-0.214,0.528-0.508,0.544c-0.002,0-0.002,0-0.004,0
													c-0.296,0.015-0.548-0.206-0.562-0.492c-0.095-1.945-0.209-3.936-0.334-5.925c-0.022-0.35-0.044-0.7-0.068-1.05
													c-0.423-6.5-0.96-12.881-1.365-17.386c-0.034-0.364-0.064-0.718-0.096-1.057c-0.09-0.989-0.172-1.865-0.242-2.608
													c0.356-0.055,0.713-0.113,1.065-0.172c0.07,0.742,0.152,1.628,0.243,2.626c0.032,0.339,0.063,0.693,0.096,1.057
													c0.401,4.466,0.935,10.791,1.357,17.252c0.024,0.356,0.047,0.715,0.071,1.071
													C560.177,311.09,560.296,313.156,560.395,315.169z"/>
											</g>
										</g>
									</g>
								</g>
							</g>
						</g>
					</g>
				</g>
				<g>
					<g>
						<g>
							<g>
								<g>
									<g>
										<g>
											<g>
												<path style="fill:#007DED;" d="M561.927,308.309c-0.168,0.08-0.921,0.43-1.879,0.72
													c-0.335,0.102-0.694,0.195-1.062,0.268c-0.337,0.065-0.679,0.113-1.018,0.132c-0.651,0.037-1.279-0.032-1.804-0.283
													c-0.653-0.312-1.077-0.881-1.224-1.642c-0.391-2.005-1.212-10.285-1.764-16.141c-0.035-0.36-0.068-0.711-0.1-1.053
													c-0.087-0.937-0.166-1.789-0.232-2.513c0.355-0.043,0.712-0.086,1.069-0.133c0.067,0.728,0.146,1.59,0.236,2.54
													c0.032,0.339,0.065,0.691,0.098,1.053c0.554,5.842,1.372,14.109,1.751,16.053c0.085,0.448,0.291,0.736,0.648,0.907
													c0.569,0.271,1.423,0.215,2.272,0.03c0.362-0.079,0.722-0.18,1.059-0.288c0.615-0.199,1.152-0.425,1.475-0.578
													c0.266-0.127,0.589-0.023,0.72,0.234C562.303,307.87,562.193,308.182,561.927,308.309z"/>
											</g>
										</g>
									</g>
								</g>
							</g>
						</g>
					</g>
				</g>
			</g>
		</g>
		<g>
			<g>
				<path style="fill:#21255C;" d="M532.935,319.759c0.626,2.887-1.209,5.733-4.095,6.358c-2.887,0.626-5.736-1.206-6.362-4.093
					s1.209-5.738,4.096-6.363C529.461,315.035,532.31,316.871,532.935,319.759z"/>
				
					<rect x="576.296" y="311.192" transform="matrix(0.9773 -0.2117 0.2117 0.9773 -69.5713 131.883)" style="fill:#21255C;" width="9.401" height="159.177"/>
				
					<rect x="593.301" y="447.314" transform="matrix(0.9773 -0.2117 0.2117 0.9773 -81.406 146.0949)" style="fill:#21255C;" width="96.287" height="11.67"/>
				<g>
					<g>
						<path style="fill:#495375;" d="M629.643,470.632c1.63,7.524-3.148,14.944-10.672,16.574
							c-7.524,1.63-14.946-3.147-16.576-10.671c-1.63-7.524,3.149-14.944,10.673-16.574
							C620.592,458.331,628.013,463.108,629.643,470.632z"/>
						<path style="fill:#F4D071;" d="M622.197,472.245c0.74,3.414-1.429,6.779-4.838,7.518c-3.412,0.739-6.776-1.427-7.516-4.841
							c-0.74-3.413,1.427-6.774,4.84-7.513C618.091,466.67,621.457,468.832,622.197,472.245z"/>
					</g>
					<g>
						<path style="fill:#495375;" d="M689.686,457.623c1.63,7.524-3.15,14.945-10.673,16.575
							c-7.525,1.63-14.947-3.146-16.577-10.671c-1.63-7.524,3.149-14.944,10.674-16.575
							C680.633,445.323,688.056,450.099,689.686,457.623z"/>
						<path style="fill:#F4D071;" d="M682.239,459.237c0.74,3.414-1.427,6.779-4.838,7.518c-3.414,0.74-6.779-1.427-7.518-4.84
							c-0.74-3.414,1.428-6.774,4.842-7.514C678.135,453.661,681.499,455.823,682.239,459.237z"/>
					</g>
				</g>
				
					<rect x="527.232" y="311.095" transform="matrix(0.9773 -0.2117 0.2117 0.9773 -54.5736 123.2561)" style="fill:#21255C;" width="41.983" height="10.699"/>
				<path style="fill:#21255C;" d="M694.199,441.72c0.682,3.148-1.317,6.256-4.467,6.938c-3.148,0.682-6.258-1.318-6.94-4.467
					c-0.682-3.148,1.321-6.257,4.469-6.939C690.411,436.57,693.517,438.572,694.199,441.72z"/>
			</g>
			<g>
				<g>
					
						<rect x="615.976" y="361.999" transform="matrix(0.9773 -0.2117 0.2117 0.9773 -70.6458 146.7119)" style="fill:#F4D071;" width="67.46" height="82.434"/>
					
						<rect x="639.109" y="362.047" transform="matrix(0.9773 -0.2117 0.2117 0.9773 -64.7335 145.3814)" style="fill:#FBEED1;" width="14.691" height="25.801"/>
				</g>
				
					<rect x="590.447" y="371.957" transform="matrix(0.9773 -0.2117 0.2117 0.9773 -73.7962 137.2054)" style="fill:#ECA85E;" width="26.595" height="82.434"/>
			</g>
			<g>
				<g>
					
						<rect x="617.8" y="311.338" transform="matrix(0.9773 -0.2117 0.2117 0.9773 -56.8184 143.9156)" style="fill:#F4D071;" width="51.531" height="51.837"/>
					
						<rect x="635.74" y="311.139" transform="matrix(0.9773 -0.2117 0.2117 0.9773 -54.0308 143.5138)" style="fill:#FBEED1;" width="14.691" height="25.801"/>
				</g>
				
					<rect x="576.341" y="321.295" transform="matrix(0.9773 -0.2117 0.2117 0.9773 -59.9691 134.4098)" style="fill:#ECA85E;" width="42.525" height="51.837"/>
			</g>
			<g>
				<g>
					
						<rect x="571.256" y="279.749" transform="matrix(-0.9773 0.2117 -0.2117 -0.9773 1234.5691 469.3476)" style="fill:#F4D071;" width="41.799" height="42.047"/>
					
						<rect x="582.115" y="280.389" transform="matrix(-0.9773 0.2117 -0.2117 -0.9773 1224.3966 450.5945)" style="fill:#FBEED1;" width="11.916" height="20.928"/>
				</g>
				
					<rect x="612.19" y="271.672" transform="matrix(0.9773 -0.2117 0.2117 0.9773 -47.7024 139.9086)" style="fill:#ECA85E;" width="34.494" height="42.047"/>
			</g>
		</g>
		<g>
			<g>
				<g>
					<g>
						<g>
							<g>
								<path style="fill:#F2C9AD;" d="M539.072,303.123c0,0,5.833,2.297,8.082,4.893c2.249,2.596,0.209,4.854,0.209,4.854
									s3.773,5.213,3.102,7.166c-0.671,1.953-2.668,1.429-2.668,1.429s0.194,1.483-0.634,2.111s-2.759-0.145-2.759-0.145
									s-0.216,2.005-1.242,2.494c-1.026,0.488-2.484-0.379-2.484-0.379s-1.283,2.552-2.957,1.815
									c-3.848-1.693-10.613-15.465-10.613-15.465S533.503,305.315,539.072,303.123z"/>
							</g>
						</g>
					</g>
					<g>
						<g>
							<g>
								<path style="fill:#EF9F6A;" d="M547.256,312.86c-0.138,0.045-0.296,0.013-0.406-0.096c-1.909-1.87-4.055-4.161-4.077-4.184
									c-0.152-0.163-0.144-0.418,0.019-0.57c0.163-0.152,0.418-0.144,0.57,0.019c0.021,0.023,2.156,2.301,4.052,4.159
									c0.159,0.156,0.162,0.411,0.006,0.57C547.372,312.806,547.316,312.84,547.256,312.86z"/>
							</g>
						</g>
					</g>
				</g>
				<g>
					<g>
						<g>
							<path style="fill:#FFFFFF;" d="M528.939,215.816l-8.091-5.561l-0.328,0.488l-0.262,0.401l-0.491,0.769
								c-0.319,0.506-0.625,1.004-0.924,1.502c-0.598,0.996-1.163,1.992-1.716,2.991c-1.102,1.998-2.138,4.012-3.118,6.055
								c-0.983,2.041-1.889,4.119-2.748,6.221c-0.859,2.102-1.652,4.237-2.378,6.403c-0.729,2.165-1.392,4.363-1.982,6.591
								c-0.581,2.232-1.097,4.49-1.521,6.783c-0.863,4.579-1.35,9.293-1.397,14.078c-0.008,1.197,0.007,2.397,0.059,3.601
								l0.04,0.907l0.056,0.778l0.017,0.194l0.02,0.177l0.042,0.35c0.056,0.484,0.13,0.885,0.203,1.315l0.119,0.594
								c0.04,0.197,0.082,0.396,0.126,0.574c0.347,1.485,0.748,2.762,1.168,3.971c0.421,1.205,0.864,2.331,1.319,3.422
								c0.908,2.178,1.882,4.213,2.878,6.197c1,1.981,2.018,3.909,3.074,5.8c1.054,1.891,2.127,3.75,3.217,5.59
								c1.094,1.837,2.209,3.651,3.335,5.452c1.13,1.799,2.285,3.577,3.449,5.349l1.76,2.651l0.901,1.319l0.93,1.346l13.952-8.778
								l-1.425-2.621l-1.442-2.668c-0.956-1.783-1.89-3.578-2.818-5.37c-0.932-1.79-1.843-3.585-2.734-5.38
								c-0.897-1.792-1.769-3.586-2.606-5.377c-0.836-1.791-1.653-3.572-2.406-5.341c-0.755-1.766-1.448-3.522-2.048-5.198
								c-0.297-0.837-0.565-1.655-0.783-2.419c-0.218-0.76-0.386-1.475-0.472-2.014c-0.015-0.073-0.019-0.129-0.026-0.186
								l-0.022-0.169c-0.001-0.082-0.018-0.191-0.009-0.222l0-0.036c0-0.005-0.001-0.014,0-0.016l0.004,0.001
								c0.005,0.001,0.008,0.002,0.008,0.004l0.001-0.645c0-0.865,0.029-1.735,0.073-2.607c0.186-3.491,0.716-7.024,1.504-10.555
								c0.793-3.53,1.862-7.053,3.14-10.534c1.288-3.478,2.776-6.921,4.449-10.275c0.56-1.132-1.301-2.123-0.7-3.229
								C530.552,224.234,531.006,219.94,528.939,215.816z"/>
						</g>
					</g>
				</g>
				<g>
					<g>
						<g>
							<path style="fill:#C9DFF4;" d="M533.999,304.127c0.147,0.635-0.25,1.269-0.885,1.416c-0.635,0.147-1.269-0.249-1.416-0.885
								c-0.147-0.635,0.249-1.269,0.885-1.416C533.219,303.096,533.852,303.492,533.999,304.127z"/>
						</g>
					</g>
				</g>
				<g>
					<g>
						<g>
							<path style="fill:#C9DFF4;" d="M523.334,306.72c-0.206,0.067-0.44-0.006-0.569-0.193c-0.158-0.229-0.101-0.543,0.128-0.701
								c0.075-0.052,7.58-5.225,13.942-8.645c0.245-0.132,0.551-0.04,0.683,0.206c0.132,0.245,0.04,0.551-0.205,0.683
								c-6.312,3.393-13.771,8.534-13.846,8.586C523.424,306.684,523.38,306.706,523.334,306.72z"/>
						</g>
					</g>
				</g>
				<g>
					<g>
						<g>
							<path style="fill:#C9DFF4;" d="M537.544,305.234c-0.222,0.072-0.471-0.019-0.592-0.229l-3.097-5.394
								c-0.139-0.242-0.055-0.55,0.186-0.688c0.242-0.138,0.55-0.055,0.688,0.186l3.097,5.394c0.139,0.241,0.055,0.55-0.186,0.688
								C537.609,305.21,537.577,305.224,537.544,305.234z"/>
						</g>
					</g>
				</g>
				<g>
					<g>
						<g>
							<path style="fill:#C9DFF4;" d="M523.785,268.008c-0.061,0.02-0.126,0.028-0.193,0.023c-4.123-0.319-8.11,0.433-8.15,0.441
								c-0.273,0.052-0.538-0.127-0.59-0.4c-0.052-0.273,0.127-0.539,0.4-0.59c0.168-0.032,4.161-0.785,8.417-0.456
								c0.277,0.022,0.485,0.264,0.464,0.542C524.117,267.777,523.974,267.947,523.785,268.008z"/>
						</g>
					</g>
				</g>
				<g>
					<g>
						<g>
							<path style="fill:#C9DFF4;" d="M523.578,267.79c-0.165,0.053-0.354,0.02-0.493-0.105c-0.963-0.867-3.878-2.284-3.908-2.298
								c-0.251-0.122-0.355-0.423-0.234-0.673c0.121-0.251,0.423-0.356,0.674-0.234c0.125,0.061,3.074,1.494,4.143,2.456
								c0.207,0.186,0.224,0.505,0.037,0.712C523.736,267.717,523.66,267.764,523.578,267.79z"/>
						</g>
					</g>
				</g>
			</g>
		</g>
	</g>
	
		<line style="fill:none;stroke:#59595B;stroke-width:4;stroke-linecap:round;stroke-miterlimit:10;" x1="35.762" y1="486.122" x2="714.238" y2="486.122"/>
	<rect x="-22.942" y="436.178" style="fill:#F7DD8C;" width="0.586" height="0.586"/>
</g>
</svg>
